# xmcd
#
# Track frame offsets:
#	150
#	17498
#	44100
#	69895
#	98652
#
# Disc length: 1779 seconds
#
# Revision: 1
# Processed by: cddbd v1.5.1PL2 Copyright (c) Steve Scherf et al.
# Submitted via: audiograbber 1.83.01
#
DISCID=3606f105
DTITLE=Banaroo - Sind and Move
DYEAR=2006
DGENRE=Dance
TTITLE0=Sind and Move (Album Version)
TTITLE1=Sind and Move (Extrend Version)
TTITLE2=Sind and Move (DB Mix)
TTITLE3=Sind and Move (Instromental Version)
TTITLE4=Sind and Move (Video)
EXTD=
EXTT0=
EXTT1=
EXTT2=
EXTT3=
EXTT4=
PLAYORDER=
